<svg width="200" height="128" viewBox="0 0 200 128" fill="none" xmlns="http://www.w3.org/2000/svg">
<path d="M84.3521 106V102.76C72.3521 101.92 70.9121 100.84 70.9121 93.5201V20.6801H68.7521C64.0721 28.2401 59.5121 30.2801 49.6721 32.2001L44.8721 33.1601V36.0401H59.1521V93.5201C59.1521 100.84 57.9521 101.92 44.9921 102.76V106H84.3521Z" fill="#A11A1A"/>
<path d="M122.055 103.72C106.695 103.72 102.735 82.7201 102.735 63.8801C102.735 45.0401 106.695 24.0401 122.055 24.0401C137.415 24.0401 141.375 45.0401 141.375 63.8801C141.375 82.7201 137.415 103.72 122.055 103.72ZM122.055 107.2C142.575 107.2 154.095 88.0001 154.095 63.8801C154.095 39.7601 142.575 20.5601 122.055 20.5601C101.535 20.5601 90.0146 39.7601 90.0146 63.8801C90.0146 88.0001 101.535 107.2 122.055 107.2Z" fill="#A11A1A"/>
</svg>
