<svg width="200" height="128" viewBox="0 0 200 128" fill="none" xmlns="http://www.w3.org/2000/svg">
<path d="M97.7114 106V102.76C85.7114 101.92 84.2714 100.84 84.2714 93.5199V20.6799H82.1114C77.4314 28.2399 72.8714 30.2799 63.0314 32.1999L58.2314 33.1599V36.0399H72.5114V93.5199C72.5114 100.84 71.3114 101.92 58.3514 102.76V106H97.7114Z" fill="#A11A1A"/>
<path d="M142.946 106V102.76C130.946 101.92 129.506 100.84 129.506 93.5199V20.6799H127.346C122.666 28.2399 118.106 30.2799 108.266 32.1999L103.466 33.1599V36.0399H117.746V93.5199C117.746 100.84 116.546 101.92 103.586 102.76V106H142.946Z" fill="#A11A1A"/>
</svg>
