<svg width="200" height="128" viewBox="0 0 200 128" fill="none" xmlns="http://www.w3.org/2000/svg">
<path d="M89.8013 106V102.76C77.8013 101.92 76.3613 100.84 76.3613 93.5201V20.6801H74.2013C69.5213 28.2401 64.9613 30.2801 55.1213 32.2001L50.3213 33.1601V36.0401H64.6013V93.5201C64.6013 100.84 63.4013 101.92 50.4413 102.76V106H89.8013Z" fill="#A11A1A"/>
<path d="M104.344 95.8001C119.944 79.4801 145.264 60.8801 145.264 41.8001C145.264 28.8401 136.744 20.5601 122.344 20.5601C107.824 20.5601 99.5438 30.4001 94.6238 39.6401L96.7838 41.0801C101.464 34.8401 108.184 29.6801 117.424 29.6801C127.864 29.6801 133.624 36.1601 133.624 46.3601C133.624 57.7601 128.944 65.5601 112.984 81.8801L91.9838 103.36V106H144.544L149.464 83.4401H146.464C140.584 94.7201 136.864 95.8001 126.784 95.8001H104.344Z" fill="#A11A1A"/>
</svg>
