<svg width="200" height="128" viewBox="0 0 200 128" fill="none" xmlns="http://www.w3.org/2000/svg">
<path d="M102.392 57.8801C110.432 55.8401 121.352 50.2001 121.352 38.6801C121.352 27.6401 113.552 20.5601 101.312 20.5601C89.5517 20.5601 81.5117 27.0401 77.0717 36.5201L78.9917 38.0801C83.3117 32.2001 89.0717 28.4801 96.7517 28.4801C105.872 28.4801 110.432 34.1201 110.432 41.8001C110.432 53.5601 99.3917 58.1201 86.3117 61.9601L86.9117 64.6001H91.1117C105.152 64.6001 115.472 71.4401 115.472 84.7601C115.472 95.2001 109.472 103.72 98.3117 103.72C88.5917 103.72 82.4717 97.3601 82.4717 87.8801C82.4717 85.2401 82.7117 83.4401 83.1917 81.7601H76.2317C73.3517 83.0801 70.9517 86.0801 70.9517 90.2801C70.9517 98.9201 80.6717 107.2 98.3117 107.2C114.152 107.2 126.632 97.6001 126.632 81.0401C126.632 69.2801 116.792 59.3201 102.392 57.8801Z" fill="#A11A1A"/>
</svg>
