<svg width="200" height="128" viewBox="0 0 200 128" fill="none" xmlns="http://www.w3.org/2000/svg">
<path d="M121.455 32.8L124.455 16.48H121.815C118.935 21.64 117.855 21.76 113.535 21.76H86.2949L79.4549 61C102.375 61.12 116.655 69.04 116.655 85.12C116.655 96.4 109.215 103.72 98.4149 103.72C88.5749 103.72 83.6549 98.44 83.6549 88.48C83.6549 85.72 84.0149 83.8 84.4949 81.76H77.2949C74.8949 83.08 72.2549 86.08 72.2549 90.28C72.2549 98.92 81.2549 107.2 98.4149 107.2C114.855 107.2 125.895 96.16 125.895 80.56C125.895 60.52 108.615 52.48 85.4549 51.52L88.5749 32.8H121.455Z" fill="#A11A1A"/>
</svg>
