<svg width="200" height="128" viewBox="0 0 200 128" fill="none" xmlns="http://www.w3.org/2000/svg">
<path d="M119.036 23.2L116.636 20.8C88.0759 25.96 70.7959 46.9601 70.7959 72.5201C70.7959 91.8401 81.7159 107.2 101.756 107.2C117.476 107.2 129.596 95.5601 129.596 77.6801C129.596 61.9601 119.156 53.2001 105.596 53.2001C94.7959 53.2001 86.8759 58.8401 83.1559 62.9201C85.5559 43.72 97.0759 29.2 119.036 23.2ZM99.5959 59.5601C112.316 59.5601 118.916 68.5601 118.916 82.2401C118.916 94.9601 112.676 103.6 101.756 103.6C90.2359 103.6 82.6759 91.4801 82.6759 70.9601C82.6759 69.1601 82.6759 67.3601 82.7959 65.6801C86.1559 62.8001 92.5159 59.5601 99.5959 59.5601Z" fill="#A11A1A"/>
</svg>
