<svg width="200" height="128" viewBox="0 0 200 128" fill="none" xmlns="http://www.w3.org/2000/svg">
<path d="M124.947 40.4801C124.947 28.4801 115.227 20.5601 99.9865 20.5601C83.6665 20.5601 74.9065 30.6401 74.9065 42.1601C74.9065 53.3201 81.1465 58.8401 88.3465 62.4401L91.2265 63.8801C80.9065 67.3601 71.6665 74.0801 71.6665 85.3601C71.6665 98.2001 83.1865 107.2 99.9865 107.2C119.187 107.2 128.307 96.4001 128.307 83.6801C128.307 73.1201 121.947 66.5201 112.707 62.0801L107.067 59.4401C115.107 57.1601 124.947 50.8001 124.947 40.4801ZM105.867 70.8401C113.187 74.2001 118.347 79.0001 118.347 86.8001C118.347 97.8401 111.267 103.6 99.9865 103.6C88.9465 103.6 81.9865 95.5601 81.9865 84.8801C81.9865 77.0801 84.6265 70.1201 93.6265 64.9601L105.867 70.8401ZM96.2665 53.6801C89.1865 50.0801 84.6265 47.3201 84.6265 38.6801C84.6265 30.0401 90.5065 24.1601 99.8665 24.1601C109.827 24.1601 115.587 31.0001 115.587 40.6001C115.587 48.6401 112.107 53.8001 105.147 58.2401L96.2665 53.6801Z" fill="#A11A1A"/>
</svg>
