<svg width="200" height="128" viewBox="0 0 200 128" fill="none" xmlns="http://www.w3.org/2000/svg">
<path d="M80.996 104.56L83.396 106.96C111.956 101.8 129.236 80.8001 129.236 55.2401C129.236 35.9201 118.316 20.5601 98.276 20.5601C82.556 20.5601 70.436 32.2001 70.436 50.0801C70.436 65.8001 80.876 74.5601 94.436 74.5601C105.236 74.5601 113.036 69.0401 116.876 64.9601C114.356 84.1601 102.956 98.6801 80.996 104.56ZM100.436 68.2001C87.716 68.2001 81.116 59.2001 81.116 45.5201C81.116 32.8001 87.356 24.1601 98.276 24.1601C109.796 24.1601 117.356 36.2801 117.356 56.8001C117.356 58.6001 117.236 60.4001 117.116 62.2001C113.756 65.0801 107.396 68.2001 100.436 68.2001Z" fill="#A11A1A"/>
</svg>
