<svg width="156" height="74" viewBox="0 0 156 74" fill="none" xmlns="http://www.w3.org/2000/svg">
<path fill-rule="evenodd" clip-rule="evenodd" d="M31.4904 0.256727C32.634 0.0721785 33.7981 -0.0289431 34.9591 0.00730135C35.4721 0.0228491 35.988 0.0544951 36.5037 0.108702C37.2115 0.18309 37.9148 0.299899 38.6108 0.485921C39.6609 0.761075 40.6822 1.15962 41.6221 1.70987C42.6682 2.32321 43.6627 3.04173 44.5051 3.91808C46.4138 5.90423 47.642 8.4577 48.4909 11.0548C49.357 13.7005 49.7855 16.4738 49.8929 19.2541C49.893 19.2554 49.894 19.2565 49.8952 19.2566C52.3462 19.7986 54.6834 20.735 56.7875 22.1074C57.2094 22.3838 57.6237 22.6721 58.0283 22.9722C58.0535 22.9908 58.08 23.0076 58.1076 23.0225C58.9004 23.4488 59.6512 23.9731 60.3016 24.5828C61.2567 25.4823 62.0052 26.5429 62.5646 27.7281C62.7183 27.9632 62.7436 28.2165 62.6433 28.4836C62.6293 28.5147 62.6153 28.5458 62.6013 28.577C62.5444 28.7039 62.4872 28.8316 62.4286 28.9576C62.198 29.3262 61.9138 29.6462 61.5716 29.9172C61.1302 30.2726 60.5319 30.6386 59.9442 30.6672C59.6819 30.7068 59.4559 30.6428 59.2643 30.4752C59.235 30.4496 59.2103 30.4193 59.188 30.3875C57.9998 28.6861 56.5952 27.1645 54.9715 25.8904C54.9373 25.8636 54.9004 25.8405 54.8613 25.8218C53.798 25.3117 52.6587 24.9916 51.4802 24.8588C51.0687 24.833 50.6592 24.8309 50.251 24.8515C49.9509 24.8667 49.7156 25.1067 49.6861 25.4056C49.5306 26.9861 49.3033 28.5612 49.0154 30.119C48.517 32.8235 47.8508 35.497 47.0299 38.1204C47.0282 38.1259 47.032 38.1317 47.0377 38.1323C47.1039 38.1308 47.1689 38.1279 47.2339 38.1218C47.2774 38.1178 47.32 38.1073 47.3613 38.0933C47.3696 38.0904 47.3779 38.0876 47.3861 38.0848C47.4187 38.0737 47.4502 38.0597 47.4803 38.043C47.5202 38.0208 47.5598 37.9983 47.5983 37.9745C47.7163 37.8831 47.8327 37.7847 47.9469 37.6861C48.2182 37.4031 48.473 37.1048 48.7154 36.7962C49.2385 36.0498 49.6875 35.2573 50.0788 34.4339C50.6489 33.125 51.0708 31.7587 51.3023 30.3458C51.3081 30.3104 51.3166 30.2753 51.3291 30.2416C51.4366 29.9506 51.5974 29.6895 51.8093 29.46L52.2358 29.0534C52.5274 28.8131 52.8491 28.6302 53.2011 28.5025C53.4625 28.399 53.7312 28.3776 54.0047 28.4379C54.2059 28.5044 54.3269 28.6359 54.3656 28.8356C54.3731 28.8744 54.3802 28.9134 54.3918 28.9512C54.7567 30.1379 55.1468 31.3162 55.5869 32.4778C56 33.5303 56.4481 34.5932 57.0515 35.5527C57.4192 36.1354 57.834 36.6982 58.3886 37.1131C58.5839 37.2216 58.7856 37.303 59.0028 37.3531C59.0478 37.3635 59.094 37.3673 59.14 37.3652C59.182 37.3633 59.2235 37.3606 59.2652 37.357C59.3037 37.3536 59.3416 37.3459 59.3783 37.3336C59.4042 37.3249 59.4302 37.3158 59.4562 37.3067C59.4562 37.3067 59.4563 37.3066 59.4562 37.3067C59.54 37.2613 59.6219 37.2134 59.7039 37.1633C59.9858 36.9514 60.2536 36.7223 60.5133 36.4854C61.4376 35.5736 62.2883 34.5885 63.1365 33.6054C63.386 33.3161 63.6337 33.0245 63.8816 32.7326C64.7298 31.7338 65.5805 30.7322 66.5103 29.8133C67.6864 28.6525 68.9391 27.5155 70.3981 26.714C70.9442 26.4147 71.5231 26.1257 72.1258 25.9543C72.5886 25.8246 73.0854 25.694 73.5708 25.6931C74.0022 25.691 74.4665 25.7195 74.8772 25.871C75.229 26.0028 75.5667 26.2053 75.8579 26.4413C76.3947 26.8747 76.748 27.4649 76.995 28.1004C77.0998 28.3713 77.4308 28.4827 77.6712 28.3197C77.8282 28.2132 77.9862 28.108 78.1451 28.0045C78.4531 27.8225 78.7834 27.7082 79.1379 27.6642C79.3666 27.6295 79.566 27.68 79.7363 27.8142C79.7893 27.856 79.828 27.9127 79.8587 27.9728C80.2237 28.6885 80.6345 29.3781 81.0454 30.0677C81.2006 30.3282 81.3558 30.5887 81.5085 30.8507C81.7654 31.2912 82.4241 31.2796 82.6592 30.827C83.0373 30.0992 83.429 29.3783 83.826 28.6558C84.0483 28.3022 84.3222 27.9946 84.6474 27.7354C84.9688 27.4689 85.3266 27.265 85.7185 27.1233C86.1881 26.9718 86.925 26.898 87.0204 27.5581C87.1052 28.1472 87.2833 28.7077 87.4892 29.262C87.6567 29.6759 87.8352 30.0857 88.0136 30.4955C88.2244 30.9798 88.4353 31.4641 88.6282 31.9551C88.7542 32.2707 89.1631 32.3608 89.4052 32.1224C89.4191 32.1087 89.4331 32.0949 89.447 32.0812C89.5491 31.9807 89.6511 31.8803 89.7528 31.7799C89.7986 31.7344 89.8445 31.6889 89.8904 31.6434C90.8434 30.6986 91.8021 29.7482 92.6284 28.6893C92.6548 28.6516 92.6816 28.6135 92.7058 28.5756C93.1244 27.9649 93.6985 27.4203 94.4206 27.187C94.8576 27.0455 95.5003 26.9867 95.6003 27.5818C95.761 28.5445 96.0031 29.4842 96.338 30.3998C97.0527 32.1476 98.1233 33.7522 99.6887 34.8377C100.404 35.2673 101.171 35.5489 101.998 35.656C102.431 35.6745 102.856 35.6469 103.284 35.5745C103.572 35.4987 103.85 35.4038 104.124 35.2926C104.353 35.1745 104.576 35.0489 104.794 34.9115C105.058 34.7158 105.313 34.5078 105.559 34.2877C105.956 33.8847 106.323 33.4583 106.671 33.0117C106.848 32.7618 107.019 32.5089 107.186 32.2533C107.555 31.6848 108.118 31.1819 108.773 30.9685C109.004 30.8935 109.595 30.7502 109.762 31.0658C110.394 32.2518 111.21 33.315 112.311 34.0944C112.952 34.4823 113.638 34.7417 114.381 34.8424C114.723 34.8536 115.055 34.8342 115.392 34.7794C115.585 34.7252 115.777 34.6619 115.965 34.5891C116.116 34.5123 116.262 34.4306 116.404 34.3418C116.544 34.2346 116.68 34.1247 116.812 34.0099C117.042 33.77 117.261 33.5176 117.467 33.2548C117.514 33.1876 117.562 33.1181 117.608 33.0484C117.984 32.4966 118.51 32.0033 119.16 31.7939C119.213 31.7722 119.267 31.7545 119.322 31.7406C119.492 31.6975 119.659 31.6291 119.777 31.4993C119.982 31.2728 120.191 31.0499 120.4 30.827C120.814 30.3863 121.228 29.9457 121.61 29.4773L121.621 29.4617C121.618 29.4666 121.614 29.4714 121.611 29.4763C121.65 29.4279 121.689 29.3792 121.728 29.3302C121.736 29.3187 121.745 29.3064 121.754 29.2938C121.76 29.2857 121.765 29.2775 121.771 29.2692C122.162 28.7054 122.684 28.2027 123.355 27.9865C123.666 27.8838 124.09 27.8019 124.342 28.0813C125.305 29.1441 126.397 30.0963 127.588 30.8943C128.506 31.4625 129.481 31.9374 130.554 32.0999C130.791 32.1067 131.016 32.0897 131.25 32.0511C132.271 31.7927 133.254 31.3746 134.213 30.9449C134.651 30.7415 135.089 30.5335 135.523 30.3185C135.717 30.2225 135.843 30.031 135.877 29.8172C135.878 29.8143 135.878 29.8114 135.879 29.8085C135.959 29.3045 136.258 28.8212 136.589 28.4429C137.066 27.8949 137.652 27.5186 138.31 27.2288C138.746 27.0353 139.25 26.9394 139.728 26.9264C139.959 26.919 140.186 26.9271 140.416 26.9468C140.444 26.9491 140.471 26.9513 140.499 26.9535C140.666 26.9669 140.835 26.9805 141.002 27.0038L141.035 27.0074C141.084 27.0125 141.161 27.0183 141.199 27.0381C141.421 27.1563 141.578 27.254 141.592 27.5353C141.604 27.8053 141.49 28.1319 141.337 28.3438C141.013 28.7883 140.663 29.1759 140.223 29.5134C140.025 29.6653 139.822 29.812 139.617 29.9546C139.341 30.1464 139.253 30.5208 139.453 30.7911C139.623 31.0215 139.808 31.2416 139.999 31.4515C140.639 32.1486 141.364 32.7529 142.148 33.2801C143.688 34.2455 145.407 34.8799 147.216 35.0791C148.14 35.1401 149.053 35.0848 149.959 34.9091C150.524 34.7677 151.077 34.5819 151.615 34.3563C152.093 34.1222 152.554 33.8591 153 33.5696C153.044 33.5381 153.088 33.5067 153.13 33.4749C153.491 33.2127 153.908 32.9246 154.373 32.9013C154.586 32.8695 154.772 32.9297 154.923 33.0788C155.145 33.3549 154.964 33.7648 154.818 34.018C154.641 34.2997 154.424 34.5454 154.163 34.7528C153.012 35.5867 151.79 36.3183 150.446 36.8023C149.369 37.1903 148.215 37.4572 147.067 37.5081C145.055 37.5969 143.017 37.1908 141.212 36.2968C139.685 35.5403 138.204 34.5133 137.12 33.1827C136.935 32.9554 136.759 32.7201 136.601 32.4744C136.411 32.1803 136.03 32.0553 135.718 32.2141C134.959 32.6 134.19 32.9663 133.411 33.3143C132.397 33.7698 131.356 34.2225 130.269 34.4694C130.227 34.4792 130.185 34.4891 130.143 34.4992C129.881 34.5615 129.609 34.626 129.341 34.6406C128.992 34.6602 128.625 34.6307 128.281 34.572C127.438 34.4292 126.638 34.1127 125.897 33.6917C124.674 32.9933 123.546 32.15 122.538 31.1731C122.522 31.1568 122.495 31.1572 122.479 31.1744C122.469 31.1846 122.46 31.1949 122.45 31.2052C121.928 31.7485 121.412 32.2925 120.946 32.8823C120.732 33.1962 120.541 33.5192 120.37 33.8579C120.274 34.0984 120.188 34.3377 120.115 34.5873C119.89 35.3289 119.108 35.9848 118.39 36.2186C118.054 36.3255 117.335 36.417 117.319 35.8601C117.32 35.8428 117.32 35.8261 117.319 35.8093C117.319 35.7916 117.298 35.7819 117.284 35.7925C117.042 35.973 116.791 36.1403 116.531 36.2964C115.943 36.6477 115.295 36.9701 114.626 37.1278C114.057 37.2621 113.481 37.3912 112.893 37.3587C112.278 37.3235 111.66 37.2562 111.081 37.0328C110.552 36.8282 110.055 36.5525 109.591 36.2216C109.116 35.8827 108.693 35.4921 108.316 35.0617C108.056 34.7645 107.592 34.7408 107.311 35.0186C107.284 35.0451 107.257 35.0714 107.23 35.0976C106.775 35.5396 106.311 35.9807 105.792 36.346L105.716 36.3996C105.255 36.7244 104.788 37.054 104.281 37.3023C103.336 37.7651 102.353 38.1403 101.297 38.246C100.507 38.3255 99.6679 38.278 98.9004 38.0641C97.236 37.598 95.7622 36.4792 94.76 35.0827C94.1521 34.2343 93.6713 33.3056 93.2961 32.3342C93.1235 31.8873 92.5362 31.751 92.2004 32.0926C92.1451 32.1489 92.0896 32.2051 92.034 32.2612C91.9377 32.3587 91.8413 32.4561 91.7449 32.5535C90.8441 33.4635 89.9419 34.375 89.1526 35.3849C88.9389 35.7214 88.6754 36.0165 88.3628 36.2636C88.0467 36.5215 87.6983 36.7219 87.3159 36.8601C86.8415 37.0134 86.1556 37.0745 86.0445 36.4352C85.9468 35.8832 85.7815 35.3512 85.5882 34.8275C85.3881 34.3278 85.1686 33.8359 84.9494 33.3448C84.8427 33.1058 84.5015 33.1134 84.4126 33.3596C84.0348 34.4069 83.7402 35.4784 83.5771 36.5867L83.5736 36.6202C83.5757 36.9433 83.4878 37.2433 83.3057 37.5153L82.9427 38.0054C82.638 38.3481 82.2854 38.6316 81.8867 38.8605C81.4933 39.081 80.8702 39.3609 80.4008 39.1874C80.1433 39.1039 80.0014 38.9288 79.9733 38.6594C79.9002 37.5931 79.6568 36.5585 79.2949 35.5565C78.8828 34.5464 78.364 33.5913 77.8448 32.6358C77.7713 32.5004 77.561 32.547 77.5478 32.7005C77.5156 33.0762 77.4698 33.4506 77.4138 33.8238C77.2667 34.8151 77.0303 35.7971 76.6809 36.7378C76.2973 37.7674 75.8306 38.7929 75.2157 39.7034C74.5234 40.7277 73.7197 41.6951 72.7392 42.4544C71.7957 43.1837 70.7351 43.8036 69.5724 44.1057C69.311 44.2092 69.0468 44.2311 68.7755 44.171C68.5551 44.0982 68.4333 43.9476 68.4078 43.717C68.0388 42.2674 68.1376 40.7044 68.5808 39.2792C69.0577 37.7492 69.8148 36.2802 70.7504 34.9813C71.3002 34.2174 71.8687 33.469 72.5019 32.7703C72.9391 32.2888 73.3952 31.8254 73.8654 31.3755C74.0272 31.2206 74.0984 30.9913 74.0357 30.7762C73.9975 30.6451 73.9557 30.5149 73.9106 30.3857C73.6611 29.8017 73.3168 29.2594 72.816 28.8659C72.7921 28.8471 72.7665 28.8304 72.7396 28.8162C72.5072 28.6932 72.2618 28.6069 72.0017 28.5586C71.9704 28.5528 71.9385 28.55 71.9066 28.55C71.7291 28.5503 71.5539 28.5642 71.3791 28.5914C71.1999 28.6425 71.0242 28.7031 70.8499 28.7728C70.5899 28.9057 70.3396 29.0532 70.0928 29.2101C69.594 29.5753 69.1258 29.9708 68.6733 30.3882C67.6002 31.4471 66.6191 32.593 65.6381 33.7388C64.9615 34.5291 64.285 35.3193 63.5784 36.0807C62.8349 36.883 62.0647 37.6824 61.2135 38.3717C60.4464 38.9908 59.577 39.5947 58.6283 39.9013C58.2334 40.0291 57.7824 40.1533 57.3579 40.1335C56.9963 40.1158 56.6104 40.0933 56.2716 39.9448C55.5684 39.6339 54.9836 39.0984 54.5386 38.4782C53.8851 37.5653 53.3946 36.5408 52.9707 35.5053C52.922 35.3861 52.8739 35.267 52.8264 35.1478C52.733 34.9138 52.4052 34.8959 52.2846 35.1172C51.7902 36.0201 51.2142 36.8828 50.5617 37.6788C50.29 38.0091 50.0062 38.3247 49.6976 38.6195C49.645 38.6692 49.5926 38.7193 49.54 38.7694C49.2319 39.0634 48.9212 39.3599 48.5717 39.6028C48.4956 39.6549 48.4199 39.7082 48.344 39.7616C48.1263 39.9149 47.9073 40.0691 47.6762 40.1971C47.4406 40.3279 47.1997 40.4353 46.9527 40.5454C46.9309 40.5552 46.909 40.5649 46.8871 40.5747C46.7408 40.6396 46.5918 40.6942 46.4406 40.7409C46.2384 40.8033 46.0704 40.9501 45.9986 41.1492C44.9064 44.176 43.6354 47.143 42.1968 50.0208C40.7595 52.8923 39.1585 55.6901 37.3259 58.3282C35.6637 60.7201 33.8697 63.0552 31.7717 65.083C30.4852 66.3271 29.1547 67.5168 27.6779 68.5309C26.858 69.0948 26.0362 69.654 25.1679 70.1406C24.4051 70.5684 23.6205 70.9464 22.8198 71.3047C21.408 71.9373 19.9517 72.3915 18.4413 72.7158C17.1661 72.9926 15.8568 73.1439 14.5493 73.1058C12.0131 73.0311 9.49754 72.4598 7.33426 71.0924C6.24228 70.3998 5.21843 69.6172 4.34896 68.6545C3.48149 67.6943 2.7388 66.6207 2.15848 65.4627C0.754777 62.6673 0.0810924 59.5626 0.00904088 56.4467C-0.0570835 53.661 0.232015 50.8674 1.12442 48.2186C1.96103 45.7354 3.16369 43.3562 4.61397 41.1768C5.71376 39.5206 6.92697 37.9377 8.24097 36.4455C8.50917 36.1409 8.42788 35.6648 8.08735 35.444C7.40256 35.0001 6.77179 34.4661 6.26191 33.8308C5.4439 32.808 4.88931 31.5985 4.51051 30.3487C4.19848 29.3227 4.02088 28.2634 4.01625 27.1907C4.00848 24.8806 4.55065 22.5787 5.48744 20.474C6.03988 19.2341 6.64085 18.0264 7.37286 16.8821C8.15127 15.6614 9.01323 14.4834 9.93831 13.3707C10.7757 12.3617 11.6692 11.3991 12.6176 10.4943C13.7415 9.42283 14.8829 8.37801 16.1114 7.42813C18.3769 5.67527 20.8162 4.09418 23.4159 2.87758C24.7428 2.25858 26.0865 1.67295 27.4834 1.22608C28.7914 0.808258 30.1356 0.475502 31.4904 0.256727ZM38.9072 5.48321C37.2709 4.4715 35.4351 3.89706 33.5291 3.68996C31.8414 3.57577 30.1545 3.73256 28.4981 4.07089C26.8659 4.45915 25.284 5.01297 23.7482 5.68677C22.1711 6.43071 20.658 7.29651 19.2065 8.26358C17.795 9.25744 16.453 10.3421 15.1874 11.5161C14.0003 12.6735 12.8928 13.9115 11.8871 15.2324C11.0041 16.4602 10.218 17.7545 9.5666 19.1195C8.97082 20.4925 8.5224 21.9239 8.3056 23.4068C8.13537 25.1338 8.32177 26.8396 8.90591 28.4766C9.50472 29.9098 10.4096 31.1584 11.6813 32.0528C11.7572 32.098 11.8335 32.142 11.9104 32.1846C12.1327 32.3078 12.4066 32.2659 12.596 32.0965C14.0036 30.8375 15.4729 29.6489 17.0111 28.5497C19.54 26.7388 22.181 25.0864 24.9675 23.702C27.6851 22.3511 30.4997 21.1729 33.4156 20.3191C36.1662 19.5134 39.0118 18.9208 41.8786 18.7278C42.8795 18.661 43.889 18.6372 44.8969 18.6635C45.2858 18.6737 45.5982 18.3374 45.5397 17.9528C45.2615 16.1227 44.8188 14.3217 44.1683 12.5779C43.5663 11.0677 42.8192 9.58512 41.8315 8.28717C41.0066 7.20048 40.0319 6.25153 38.9072 5.48321ZM45.8473 23.941C45.8902 23.912 45.9162 23.864 45.917 23.8122C45.9233 23.4143 45.9226 23.0167 45.9164 22.6187C45.9116 22.3196 45.6922 22.0675 45.3961 22.0251C45.0391 21.9739 44.6817 21.9306 44.3245 21.8946C43.759 21.8503 43.1928 21.8238 42.6262 21.8141C42.3042 21.8085 42.0335 22.0595 41.9023 22.3537C41.7456 22.7054 41.5051 23.0385 41.3277 23.2387C40.6897 23.9617 39.9898 24.6286 39.2824 25.2811C38.6728 25.84 38.0453 26.3768 37.3978 26.8889C35.7334 28.206 33.9784 29.4189 32.1747 30.5363C30.3977 31.6362 28.5649 32.6445 26.6668 33.5217C24.6313 34.4613 22.5644 35.3343 20.4034 35.9424C18.9889 36.3423 17.5359 36.6794 16.0734 36.8485C14.7549 37.0011 13.4404 37.0074 12.1206 36.8506C11.8675 36.8194 11.615 36.782 11.3641 36.7364C11.145 36.6965 10.9188 36.7675 10.7703 36.9334C9.99797 37.7966 9.26007 38.6896 8.56125 39.6165C7.36541 41.265 6.30424 43.0068 5.44003 44.8505C4.60709 46.7404 3.99507 48.7189 3.71643 50.7686C3.51262 52.6434 3.51116 54.5687 3.72508 56.4422C3.91653 58.1215 4.27812 59.7712 4.86544 61.3567C5.92976 63.9877 7.63256 66.2999 9.98542 67.9038C11.7179 68.9888 13.6619 69.6288 15.6929 69.8491C17.1565 69.9487 18.6176 69.8359 20.0543 69.5467C21.2121 69.2689 22.3337 68.8856 23.4242 68.4111C24.4486 67.9206 25.4333 67.3581 26.3793 66.733C27.4185 65.9957 28.4039 65.1896 29.3391 64.324C30.7485 62.9416 32.0227 61.4277 33.2088 59.8503C35.8234 56.2583 38.0045 52.3657 39.8618 48.3329C41.0496 45.69 42.1046 42.9747 42.9926 40.2089C43.0285 40.0971 42.9971 39.9764 42.921 39.887C42.6863 39.6072 42.4812 39.3035 42.3169 38.977C41.841 38.0285 41.5205 36.9971 41.3207 35.9558C41.145 35.0502 40.9982 34.1273 40.9892 33.2031C40.9818 32.4574 41.0376 31.7116 41.1622 30.9775C41.2734 30.3278 41.4334 29.6855 41.6872 29.0756C41.9519 28.4465 42.2377 27.8107 42.6183 27.2389C43.43 26.024 44.4296 24.9327 45.631 24.0906C45.7016 24.0396 45.7747 23.9902 45.8473 23.941ZM38.6239 22.397C38.7511 22.253 38.6381 22.006 38.4472 22.0283C37.3171 22.1606 36.193 22.3476 35.0783 22.5841C32.1293 23.2584 29.2663 24.2532 26.5088 25.4893C23.9146 26.6975 21.4252 28.1107 19.0517 29.71C17.7308 30.6297 16.4511 31.6059 15.2185 32.6378C14.9847 32.8336 15.0885 33.2073 15.3915 33.2418C16.988 33.3441 18.5845 33.1666 20.149 32.8434C22.3063 32.3343 24.3928 31.5761 26.4171 30.6783C28.9093 29.5181 31.305 28.1582 33.586 26.6237C35.0281 25.6172 36.4257 24.5406 37.7204 23.3472C38.0302 23.0411 38.3343 22.7254 38.6239 22.397ZM45.5873 28.7158C45.654 28.1368 45.7125 27.5553 45.7611 26.9726C45.7683 26.8869 45.6649 26.8438 45.61 26.91C45.3933 27.2326 45.1979 27.5665 45.0237 27.9139C44.7299 28.6256 44.5328 29.3634 44.421 30.1259C44.3376 31.0268 44.3598 31.9321 44.473 32.8311C44.5065 33.0988 44.8588 33.1079 44.9114 32.8433C45.1834 31.4758 45.4105 30.0991 45.5873 28.7158ZM74.2871 34.8361C74.3316 34.4127 73.8322 34.2091 73.5616 34.5377C73.4287 34.6991 73.2981 34.8625 73.1699 35.0279C72.7012 35.6852 72.2769 36.372 71.9227 37.1C71.6134 37.8304 71.3856 38.5808 71.2579 39.3664C71.2051 39.9503 71.2154 40.5243 71.3 41.0935C71.3055 41.1305 71.3477 41.1506 71.3794 41.1309C71.5169 41.0257 71.6501 40.9178 71.7794 40.805C71.9846 40.5918 72.1772 40.3705 72.3595 40.1391C72.7004 39.6445 72.9991 39.1228 73.2594 38.579C73.7712 37.3823 74.1088 36.1243 74.2871 34.8361Z" fill="#E2C16B"/>
<path d="M108.945 12.138C110.132 11.9191 111.342 11.8768 112.547 11.9504C112.59 11.9531 112.634 11.9508 112.678 11.9466C112.754 11.9392 112.83 11.9385 112.905 11.9446C113.087 11.9638 113.253 12.0316 113.403 12.1481C113.474 12.2034 113.522 12.2817 113.555 12.3657C113.591 12.4592 113.627 12.5519 113.664 12.6447C113.665 12.6481 113.666 12.6518 113.666 12.6555C113.668 13.0532 113.557 13.4189 113.335 13.7551C112.938 14.4425 112.271 15.0337 111.583 15.4174C111.192 15.6514 110.773 15.7993 110.326 15.8611C110.288 15.8663 110.25 15.8672 110.211 15.865C109.007 15.7939 107.819 15.8637 106.623 16.0158C106.123 16.0783 105.661 15.8537 105.583 15.3241C105.577 14.9285 105.688 14.5631 105.908 14.2296C106.303 13.5465 106.965 12.9636 107.646 12.5837C108.048 12.3439 108.481 12.1953 108.945 12.138Z" fill="#E2C16B"/>
</svg>
