<svg width="204" height="41" viewBox="0 0 204 41" fill="none" xmlns="http://www.w3.org/2000/svg">
<g clip-path="url(#clip0)">
<path fill-rule="evenodd" clip-rule="evenodd" d="M141.069 0.625696C141.458 0.333714 141.892 0.132108 142.365 0.0231943C142.46 0.00929046 142.555 2.12116e-05 142.645 0.00233852C143.05 0.00233852 143.396 0.16455 143.514 0.628013C143.56 1.03818 143.488 1.42749 143.296 1.79594C143.055 2.2988 142.842 2.81324 142.654 3.33695C142.232 4.71807 141.982 6.1409 141.927 7.58227C141.94 9.41526 142.267 11.2344 143.057 12.8982C144.012 14.6362 145.484 16.0822 147.219 17.0415C148.295 17.5513 149.435 17.8225 150.623 17.841C151.622 17.7877 152.598 17.5792 153.55 17.2825C154.965 16.7826 156.314 16.1302 157.663 15.4778C158.366 15.1384 159.068 14.7989 159.779 14.4809C160.931 13.9641 162.113 13.4961 163.334 13.1624C164.479 12.8495 165.64 12.7429 166.824 12.7198C168.291 12.6896 169.771 12.7707 171.231 12.9214C172.735 13.0766 174.23 13.2875 175.715 13.5656C178.867 14.1542 181.967 14.9768 185.052 15.8458C185.92 16.0904 186.787 16.3388 187.654 16.5872C189.941 17.2426 192.229 17.8981 194.536 18.4829C197.584 19.2546 200.668 19.9289 203.799 20.2649C204.195 20.3066 203.905 20.8883 203.799 21.0389C203.583 21.3425 203.224 21.6437 202.83 21.6182C197.347 21.2722 192.004 19.8839 186.701 18.5061C186.215 18.3799 185.729 18.2537 185.244 18.1284C182.331 17.3752 179.411 16.6244 176.454 16.0683C173.727 15.5538 170.96 15.1668 168.179 15.19C166.156 15.2618 164.106 15.5028 162.168 16.1053C160.487 16.6974 158.905 17.5212 157.327 18.3429C157.065 18.4796 156.802 18.6162 156.54 18.7517C155.383 19.3496 154.215 19.9382 152.999 20.4016C151.733 20.8836 150.406 21.3239 149.045 21.4352C147.708 21.5464 146.346 21.4815 145.076 21.018C143.607 20.4827 142.239 19.6277 141.097 18.5617C139.072 16.6731 137.934 13.9248 137.762 11.1834C137.577 8.19867 138.177 5.22093 139.452 2.51662C139.806 1.76813 140.395 1.10074 141.069 0.625696ZM96.1979 1.92556C98.4312 1.86453 100.671 1.80333 102.901 1.65226C102.956 1.64782 103.01 1.64551 103.061 1.64329L103.068 1.64299C103.36 1.64299 103.605 1.71714 103.693 2.06706C103.726 2.34977 103.675 2.61858 103.543 2.87348C103.311 3.39024 102.885 3.85834 102.426 4.18045C102.213 4.33847 101.984 4.45948 101.737 4.54012C101.6 4.58477 101.457 4.60248 101.314 4.61228L101.26 4.61594C98.6364 4.79527 96.0167 4.97432 93.3883 5.08188C92.1276 5.13257 90.8668 5.17488 89.6041 5.21279C89.4747 5.21668 89.3425 5.23998 89.2132 5.24819C89.0463 5.25878 88.8823 5.23265 88.7151 5.23738C87.4341 5.27356 86.1532 5.30388 84.8722 5.33215C82.4639 5.38581 80.055 5.43016 77.6461 5.47452C72.2453 5.57396 66.8441 5.67341 61.4475 5.87778C61.1959 5.8873 61.0473 6.19767 61.0665 6.44866C61.0749 6.55893 61.1199 6.66713 61.2099 6.73136C62.3868 7.5711 63.5767 8.39354 64.7669 9.21609L64.7671 9.21625L64.7672 9.21634C66.1246 10.1545 67.4821 11.0928 68.8207 12.057C71.9908 14.3396 75.1655 16.7148 77.8721 19.5466C78.9844 20.7098 80.0388 21.9635 80.829 23.3748C81.5103 24.596 82.0942 25.9354 82.1151 27.3559C82.1267 28.0789 82.0873 28.7973 81.8625 29.4878L81.8545 29.5125C81.7136 29.9468 81.5735 30.3784 81.362 30.7855C81.1418 31.2096 80.9008 31.629 80.6227 32.0183C79.3529 33.7957 77.5986 35.1096 75.717 36.1802C74.892 36.6483 74.0369 37.084 73.154 37.4293C72.533 37.6726 71.8934 37.8788 71.2515 38.0688C69.8519 38.4836 68.4244 38.8057 66.9923 39.0815C63.2892 39.7952 59.5143 40.2494 55.7418 40.3236C53.8022 40.3607 51.8556 40.3305 49.9276 40.0919C48.3403 39.8949 46.7344 39.5844 45.2536 38.9587C44.0347 38.4442 42.8042 37.7328 42.0395 36.6205C41.6757 36.0899 41.3814 35.4827 41.2446 34.8524C41.0917 34.1433 41.0917 33.4064 41.1751 32.688C41.2168 32.3335 41.5065 31.9697 41.7475 31.7287C41.9398 31.534 42.1577 31.3764 42.401 31.2583C42.6188 31.1632 42.9687 31.0497 43.1726 31.2536C43.2253 31.3197 43.2606 31.3901 43.2778 31.4645C43.316 31.6299 43.2653 31.8025 43.2561 31.972C43.2677 32.6602 43.4044 33.3276 43.6964 33.951C44.2386 34.9289 45.1146 35.638 46.0878 36.1594C47.4921 36.8476 49.0401 37.2114 50.5788 37.4362C52.4349 37.7073 54.3097 37.7792 56.182 37.756C59.3568 37.6911 62.5268 37.3528 65.6552 36.8244C68.0467 36.4212 70.4497 35.9346 72.7624 35.1884C73.8794 34.7991 74.9453 34.2893 75.9719 33.703C76.5095 33.374 77.0263 33.0194 77.5175 32.6255C77.7423 32.4215 77.9601 32.2107 78.1641 31.9882C78.2846 31.8329 78.3981 31.6754 78.5047 31.5108C78.609 31.3162 78.6994 31.1146 78.7805 30.9083C78.8778 30.5561 78.9357 30.1992 78.9589 29.8331C78.9334 28.8367 78.6322 27.875 78.1965 26.9805C77.3577 25.4186 76.1781 24.0514 74.9268 22.8047C73.395 21.2799 71.7219 19.8965 70.0025 18.5895C67.0338 16.331 63.9256 14.2667 60.8191 12.2035C60.5502 12.025 60.2813 11.8464 60.0126 11.6677C59.3104 11.2008 58.6082 10.734 57.9086 10.2619C57.6166 10.0649 57.2612 9.95973 56.9861 9.73969L56.7088 9.52614L56.706 9.52395C56.3051 9.21518 55.9029 8.90545 55.5008 8.59725C54.9029 8.17087 54.3166 7.7329 53.7326 7.28797C53.4952 7.10498 53.263 6.91503 53.0308 6.72509L53.0307 6.72503L53.0305 6.72487C52.7165 6.46807 52.3166 6.34255 51.9119 6.36992C51.5662 6.3933 51.2205 6.41736 50.8749 6.44214C39.9325 7.22771 28.8975 8.64359 18.4394 12.0778C15.2107 13.1687 12.0524 14.466 9.02476 16.0288C8.44102 16.3301 8.63378 17.1618 9.2907 17.1597C9.4201 17.1555 9.55034 17.1505 9.68091 17.1442C9.85457 17.1357 10.0261 17.0973 10.1999 17.0913C10.3701 17.0854 10.5311 17.1202 10.6821 17.1953C10.828 17.2678 10.927 17.4042 11.0009 17.5493C11.0632 17.6717 11.1072 17.8043 11.1092 17.9416C11.1143 18.2768 11.0374 18.5987 10.8757 18.9047C10.542 19.6555 9.92101 20.3321 9.25594 20.8002C8.92939 21.0456 8.57384 21.2266 8.18928 21.3431C8.0355 21.3896 7.87525 21.4095 7.71473 21.4167C6.46167 21.4725 5.20166 21.453 3.95393 21.3332C2.82076 21.2243 1.70613 21.0435 0.589188 20.8327C-0.242727 20.6751 -0.020265 19.6717 0.216101 19.1433C0.531255 18.4319 1.11985 17.7923 1.75016 17.3474C4.19493 15.6187 6.73934 14.036 9.40425 12.6688C14.12 10.2495 19.1555 8.46284 24.2675 7.09562C29.5741 5.67743 34.9943 4.71111 40.44 4.02519C44.5832 3.50498 48.7407 3.13807 52.9059 2.87573C53.446 2.84171 53.9493 2.61788 54.4468 2.40479C54.6207 2.33031 54.7992 2.27544 54.9794 2.24782C55.0767 2.22233 55.1694 2.21074 55.2482 2.20379C55.43 2.20379 55.5995 2.25335 55.7566 2.35247C55.8281 2.39757 55.8976 2.44613 55.9718 2.48648C56.2028 2.61202 56.4628 2.67596 56.7254 2.66317C62.7787 2.36843 68.8439 2.26271 74.9008 2.19683C77.0035 2.17387 79.1066 2.15855 81.2098 2.14324L81.2099 2.14324C84.4145 2.1199 87.6192 2.09657 90.823 2.0462C90.852 2.0462 90.8804 2.04562 90.9088 2.04504C90.9372 2.04446 90.9656 2.04388 90.9945 2.04388C91.027 2.04388 91.0594 2.0433 91.0919 2.04272L91.0919 2.04272C91.1243 2.04214 91.1568 2.04157 91.1892 2.04157C91.2845 2.03927 91.3792 2.03754 91.4736 2.03582C91.5698 2.03407 91.6657 2.03232 91.7616 2.02998C93.0407 2.00681 94.3222 1.97668 95.6013 1.94192L96.1979 1.92556ZM133.389 8.6771L133.387 8.6773L133.386 8.67741C133.048 8.71318 132.71 8.74892 132.373 8.78496C131.332 8.89619 130.299 9.03754 129.265 9.19049C127.187 9.49637 125.115 9.86251 123.062 10.3028C122.95 10.3271 122.84 10.3581 122.731 10.3954C122.47 10.4846 122.21 10.5779 121.939 10.6235C121.022 10.7775 120.108 10.9413 119.194 11.1208C116.404 11.6677 113.661 12.3837 110.972 13.3107C108.546 14.1479 106.221 15.2507 104.046 16.6124C104.009 16.6358 103.959 16.625 103.93 16.592C103.504 16.1656 102.809 16.4159 102.354 16.6036C101.363 17.0114 100.408 17.505 99.5157 18.1052C99.0684 18.4064 98.6536 18.7679 98.2643 19.141C97.7082 19.674 97.3235 20.2464 96.9527 20.9091C96.7743 21.2289 96.6469 21.5974 96.5936 21.9612C96.5472 22.2717 96.531 22.6355 96.6422 22.9391C96.8346 23.4605 97.1404 23.8382 97.5946 24.1418C98.1624 24.5218 98.8112 24.7999 99.4531 25.0224C100.144 25.2634 100.86 25.4348 101.573 25.5832C103.339 25.947 105.149 26.1208 106.95 26.2042C109.204 26.3062 111.487 26.2529 113.728 25.9748C114.659 25.8589 115.586 25.6898 116.492 25.4464C117.401 25.2031 118.328 24.9042 119.157 24.4523C119.839 24.0839 120.427 23.6227 120.879 22.9831C121.21 22.5127 121.801 21.4885 121.247 20.9439C120.216 19.9266 118.951 19.2384 117.619 18.6938C116.323 18.1631 114.937 17.8665 113.559 17.644C112.347 17.4487 111.125 17.3282 109.902 17.2076L109.902 17.2075C109.639 17.1816 109.592 16.8285 109.84 16.7386C110.064 16.6579 110.288 16.579 110.514 16.5016C113.635 15.4927 116.851 14.8281 120.084 14.2922C120.28 14.2597 120.48 14.309 120.675 14.3488C121.848 14.5852 122.958 14.993 124.056 15.4611C125.532 16.293 126.837 17.4679 127.664 18.958C127.968 19.6022 128.167 20.2858 128.199 20.9972C128.183 21.2262 128.146 21.4506 128.091 21.6726C128.091 21.6734 128.09 21.6742 128.09 21.675C128.066 21.7286 128.042 21.7823 128.017 21.8359C128.009 21.853 127.999 21.8693 127.988 21.8848C127.978 21.9002 127.966 21.9146 127.952 21.9278L127.946 21.9341C127.931 21.9491 127.915 21.9629 127.898 21.9754C127.809 22.0406 127.72 22.1038 127.627 22.1651C127.286 22.3436 126.934 22.4965 126.573 22.6309C126.376 22.6902 126.179 22.7446 125.98 22.7943C125.733 22.8561 125.506 22.6505 125.562 22.402C125.567 22.3817 125.573 22.3617 125.581 22.3426C125.613 22.2688 125.648 22.1952 125.685 22.1234C125.935 21.743 126.216 21.3831 126.497 21.0232C126.741 20.7101 126.986 20.3969 127.21 20.0703C127.44 19.7337 127.855 18.9277 127.393 18.6335C127.281 18.5624 127.144 18.5445 127.011 18.5501C126.83 18.5578 126.655 18.6046 126.487 18.6915C126.014 18.9023 125.625 19.2824 125.319 19.6902C125.187 19.8663 125.05 20.0401 124.911 20.2093C124.866 20.2616 124.82 20.3138 124.775 20.366C124.728 20.4197 124.681 20.4733 124.634 20.5269C124.422 20.7705 124.209 21.0142 124 21.2614C123.662 21.6646 123.389 22.0794 123.122 22.5359C122.872 22.9646 122.712 23.4234 122.578 23.9008C122.42 24.4593 122.436 25.0757 122.478 25.648C122.508 26.0744 122.99 26.1092 123.296 26.0744C125.664 25.8079 128.026 24.9366 129.685 23.1616C130.192 22.6193 130.563 22.0886 130.929 21.4514C131.182 21.0088 131.339 20.5314 131.485 20.0448C131.587 19.6995 131.629 19.3403 131.638 18.9811C131.652 18.4899 131.643 18.0171 131.553 17.5328C131.395 16.6893 131.006 15.8968 130.577 15.1622C130.146 14.4253 129.581 13.7718 128.964 13.1878C128.92 13.1455 128.875 13.1052 128.829 13.0632C128.824 13.0584 128.826 13.0496 128.834 13.0485C129.321 12.9775 129.807 12.9041 130.292 12.8171C130.309 12.8137 130.327 12.8106 130.344 12.8075C130.357 12.8053 130.37 12.8031 130.383 12.8009C130.414 12.7956 130.445 12.7904 130.475 12.7846C131.471 12.6386 132.466 12.488 133.457 12.3235C133.884 12.2238 134.273 12.0431 134.625 11.7789C135.223 11.3572 135.782 10.75 136.083 10.0757C136.257 9.74201 136.322 9.39209 136.28 9.02364C136.169 8.58798 135.856 8.46517 135.483 8.46517C135.406 8.46285 135.325 8.4698 135.242 8.47907C134.625 8.54639 134.007 8.61178 133.389 8.6771ZM101.629 20.4573C101.807 20.3703 101.977 20.2752 102.14 20.1694C102.201 20.13 102.277 20.1209 102.347 20.1375C103.972 20.5038 105.629 20.6828 107.283 20.8616L107.283 20.8616L107.283 20.8617C107.837 20.9215 108.39 20.9813 108.943 21.0482C110.156 21.1942 111.394 21.367 112.597 21.6588C112.955 21.7457 112.898 22.1851 112.53 22.1929C110.486 22.2115 108.437 22.091 106.414 21.7967C105.473 21.6599 104.535 21.4815 103.617 21.2382C102.966 21.0667 102.317 20.8558 101.708 20.5685C101.67 20.547 101.633 20.5255 101.595 20.5029C101.582 20.4951 101.584 20.4755 101.598 20.4701C101.609 20.466 101.619 20.4616 101.629 20.4573Z" fill="#E2C16B"/>
</g>
<defs>
<clipPath id="clip0">
<rect width="204" height="40.3444" fill="white"/>
</clipPath>
</defs>
</svg>
