<svg width="440" height="240" viewBox="0 0 440 240" fill="none" xmlns="http://www.w3.org/2000/svg">
<path fill-rule="evenodd" clip-rule="evenodd" d="M117.984 49.5784C118.617 45.1993 121.161 38.5271 123.294 32.9355L123.294 32.9354C125.709 26.6031 127.595 21.6566 125.579 22.9954C89.6082 46.8795 87.5884 64.2875 89.9418 72.9443C90.2034 73.9068 88.474 75.293 87.8615 74.5057C76.6141 60.0492 99.4177 38.6076 99.4177 38.6076C99.4177 38.6076 150.895 -9.91681 136.549 29.3247C156.839 3.87691 159.472 17.1061 160.665 23.1004C160.936 24.4611 161.133 25.449 161.445 25.5271C162.035 25.6748 162.832 24.3239 164.162 22.0712C166.632 17.8867 170.938 10.5905 179.167 4.00758C191.824 -6.11927 201.951 4.85153 199.419 15.8223C198.416 20.1691 195.151 28.4224 191.315 38.1172L191.314 38.119L191.313 38.1198L191.313 38.1203C185.468 52.8928 178.299 71.0113 175.791 83.7564C172.283 101.588 178.496 101.598 182.645 101.605C184.484 101.608 185.918 101.611 185.918 103.166C185.917 108.23 174.524 111.183 168.196 103.166C161.867 95.1491 161.445 82.9125 170.727 59.2832C172.543 54.6611 174.455 49.9098 176.332 45.2472L176.332 45.2471C184.05 26.0738 191.164 8.40143 188.45 7.38319C185.075 6.11733 171.571 17.51 163.554 36.9198C158.693 48.6875 158.421 58.6261 158.247 64.9846C158.134 69.114 158.063 71.7335 156.802 72.3638C150.895 75.3174 142.877 63.0808 144.144 52.954C144.787 47.812 146.844 39.8416 148.547 33.2408C150.199 26.8416 151.518 21.7295 150.895 21.7295C149.629 21.7295 134.441 36.0759 131.486 56.3296C129.738 68.3151 131.739 77.4301 133.02 83.2618L133.02 83.262L133.02 83.2622C133.903 87.285 134.444 89.7453 133.173 90.5077C126.844 94.3052 113.225 82.4906 117.984 49.5784ZM210.391 59.2832C209.2 63.848 205.749 73.6296 195.622 72.3637C190.981 86.7101 199.42 96.2668 210.391 79.5369C216.481 70.2487 220.86 60.8162 223.775 52.6051C212.312 46.3299 216.378 33.2418 217.785 28.71L217.787 28.7045L217.789 28.6998C217.863 28.4616 217.929 28.2471 217.986 28.0588C219.251 23.8392 237.817 14.5563 230.222 44.0929C229.941 45.1885 229.404 46.7536 228.681 48.6474C233.928 49.8181 240.441 52.0432 240.771 56.3295C241.015 59.5019 239.034 64.7249 236.974 70.1547C235.472 74.1136 233.929 78.1824 233.176 81.6466C228.956 101.056 238.661 95.571 245.834 85.8661C248.906 81.71 252.901 74.4508 256.303 66.8783C253.35 66.0344 249.632 59.2847 253.008 47.4686C258.312 28.9027 273.261 35.232 266.088 52.11C264.549 55.7313 262.894 59.5857 261.184 63.4523C264.022 64.4073 267.917 63.2639 271.311 62.2675C272.461 61.93 273.553 61.6094 274.527 61.393C282.122 59.7052 280.856 64.7686 280.856 64.7686C280.856 64.7686 274.949 78.693 270.308 87.132C265.666 95.571 271.573 104.854 279.591 89.6637C287.608 74.4734 300.267 52.11 303.22 49.5783C306.173 47.0466 312.252 48.8138 310.815 51.6881C306.595 60.1271 299.844 91.7735 321.786 60.5491C325.562 55.1746 327.768 50.7968 329.488 47.3845C331.261 43.8653 332.516 41.373 334.444 39.8734C338.242 36.9197 342.04 39.8734 340.774 47.4686C340.202 50.897 337.115 63.6393 333.366 77.6235C333.872 77.416 334.372 77.21 334.866 77.0052C352.166 69.832 358.496 60.1271 361.027 53.3759C366.918 37.6649 362.147 30.0794 359.513 25.8913C358.751 24.6799 358.168 23.7528 358.073 22.9954C356.876 13.4138 368.863 30.5907 367.778 41.9833C366.693 53.3759 360.605 74.4734 333.6 82.0686C333.22 82.1756 332.683 82.3578 332.015 82.6111C327.759 98.1553 322.969 114.048 320.098 119.622C312.924 133.547 285.498 139.454 289.717 112.027C291.906 97.8018 306.141 89.3678 320.406 83.0348C323.565 71.8688 327.271 58.8613 327.271 58.8613C327.271 58.8613 324.74 64.7685 316.722 74.4734C308.705 84.1783 299 77.8491 296.891 69.832C296.13 69.6418 294.597 72.5395 292.331 76.8233L292.33 76.8237C289.57 82.0413 285.722 89.3151 280.856 95.571C271.995 106.964 261.446 101.9 257.649 92.6174C255.197 86.6252 260.658 78.1715 264.043 72.931C265.902 70.0531 267.135 68.1442 266.088 68.1442C264.076 68.1442 261.635 67.9483 259.349 67.5567C253.596 80.2785 247.493 92.2782 243.302 95.571C237.395 100.213 222.017 107.386 220.095 85.8661C219.683 81.2431 220.939 73.6296 228.956 54.6417C228.111 54.411 227.316 54.155 226.571 53.8759C222.913 62.5886 217.454 74.2722 213.766 81.6466C208.281 92.6174 199.419 97.2588 191.824 91.3515C184.229 85.4442 182.119 71.0979 190.981 57.5954C199.842 44.0929 212.922 49.5783 210.391 59.2832ZM316.367 97.6469C316.789 96.0886 317.649 93.0115 318.711 89.2419C309.6 94.7083 299.422 102.863 296.957 112.415C291.077 135.201 310.882 117.901 316.367 97.6469ZM258.63 61.6882C256.869 59.0884 256.383 52.1101 258.948 44.2891C259.689 42.0307 264.855 35.8501 263.168 46.8209C262.543 50.8809 260.837 56.1932 258.63 61.6882ZM224.65 47.9238C224.832 47.9542 225.021 47.9861 225.217 48.0199C228.936 35.8913 229.127 27.4608 226.76 28.0921C220.43 29.7799 219.587 47.0799 224.65 47.9238ZM196.466 65.1906C195.622 69.8321 200.685 69.8321 203.217 65.6126C205.749 61.393 207.015 54.2199 204.483 53.7979C201.951 53.376 197.31 60.5491 196.466 65.1906ZM38.1274 134.809C15.8482 134.169 6.80932 151.352 3.22097 167.477C2.76131 169.543 -0.210248 169.527 0.0118343 167.422C1.69081 151.512 8.42861 133.867 29.3737 130.171C33.2166 129.493 36.8426 129.033 40.2694 128.685L40.3444 128.483C53.8464 92.1955 84.6493 97.2589 86.3371 113.715C87.7072 127.074 72.6721 130.144 63.8035 131.955C61.747 132.375 60.0221 132.728 58.9102 133.125C58.3943 133.309 57.9621 133.479 57.5899 133.635C54.5737 142.92 52.6512 152.848 51.7371 160.552C45.8293 210.342 72.8351 190.932 84.2273 172.788L84.2577 172.74C83.5997 159.812 85.8437 135.655 102.793 101.478C111.606 83.7078 134.439 85.4443 122.625 112.027C120.743 116.261 112.841 130.399 104.553 144.954C104.506 145.637 104.481 146.202 104.481 146.627C105.324 141.142 138.237 116.247 129.376 156.754C128.91 158.885 127.889 161.854 126.663 165.418C123.23 175.4 118.192 190.047 119.249 204.013C121.359 231.862 136.549 210.764 138.237 206.122C139.926 201.481 139.871 224.33 123.469 223.001C107.856 221.735 104.723 197.261 107.856 182.915C109.278 176.404 112.601 167.545 115.501 159.812C118.991 150.506 121.87 142.83 120.093 142.83C103.084 142.83 99.8391 174.054 100.262 182.071C100.684 190.088 87.1805 188.822 85.4932 182.071C85.3088 181.333 85.0989 180.344 84.9011 179.106L84.6493 179.54C77.0546 192.62 63.1293 199.09 52.1591 197.261C41.6555 195.511 23.0194 180.866 38.1274 134.809ZM68.5232 112.105C65.1469 115.922 62.2884 121.174 59.9224 127.022C66.3195 126.172 71.775 124.648 76.5402 120.966C85.8227 113.792 78.2276 101.134 68.5232 112.105ZM105.746 134.723C106.8 126.426 108.371 115.781 109.638 108.18C111.748 95.5214 124.406 85.8185 118.921 107.758C118.298 110.25 112.665 121.638 105.746 134.723ZM158.912 134.813C157.225 142.83 148.786 152.113 148.786 152.113C148.786 152.113 160.178 150.425 163.132 146.205C166.085 141.986 174.947 145.361 174.103 148.737C173.897 149.56 172.237 152.765 169.948 157.184L169.948 157.185C162.846 170.895 149.69 196.294 155.115 198.527C160.645 200.805 174.202 181.763 180.121 172.921C180.554 161.121 187.636 144.924 189.293 144.096C191.824 142.83 198.576 145.361 198.998 148.737C199.13 149.791 197.45 153.11 195.077 157.176C195.077 157.176 185.917 174.476 191.402 179.118C195.2 182.331 208.464 169.248 218.115 157.472C217.871 147.701 218.062 139.207 219.673 134.813C224.315 122.154 250.054 114.137 228.534 148.737C228.374 148.996 228.21 149.255 228.045 149.514C228.602 151.465 229.268 153.445 229.991 155.59L229.991 155.593L229.992 155.593L229.992 155.595L229.994 155.599L229.994 155.6C231.054 158.749 232.235 162.256 233.37 166.561C239.626 161.596 246.21 156.703 248.788 155.91C250.136 147.488 254.039 138.392 258.376 130.424L256.971 129.715C238.675 120.49 221.823 111.992 212.922 112.871C200.093 114.139 196.733 119.497 194.907 122.409C194.091 123.712 193.581 124.525 192.668 124.264C189.715 123.42 190.98 110.761 212.078 108.652C222.699 107.589 241.77 116.082 261.374 125.19C267.029 115.78 272.607 108.875 273.683 108.23C275.793 106.964 284.232 109.917 282.966 112.871C282.753 113.369 282.168 114.058 281.314 115.066L281.313 115.066C279.227 117.526 275.53 121.885 271.69 129.988C287.544 137.327 302.837 144.041 313.346 145.361C339.085 148.595 352.166 139.454 357.229 133.969C360.227 130.721 359.823 126.439 359.52 123.223C359.311 121.006 359.15 119.295 360.183 118.778C362.715 117.513 367.356 128.061 360.183 136.5C353.01 144.939 342.039 152.535 313.346 151.269C301.434 150.743 285.304 143.72 269.183 135.816C266.095 143.722 263.12 154.318 261.025 168.569C254.695 211.608 278.747 184.181 280.856 178.696C282.122 165.615 287.608 154.222 289.295 152.113C290.983 150.003 300.266 152.113 300.266 154.222C300.266 155.777 300.037 155.957 299.41 156.45L299.41 156.451L299.41 156.451L299.409 156.451C299.185 156.627 298.911 156.843 298.578 157.176C297.312 158.442 296.123 162.661 300.266 158.864C304.409 155.066 316.3 154.644 317.566 156.754C318.832 158.864 317.566 160.974 316.722 161.818C315.878 162.661 312.692 170.302 319.254 163.505C331.069 151.269 339.339 157.598 339.93 160.552C340.159 161.699 336.889 167.046 332.759 173.8L332.759 173.8L332.758 173.801L332.758 173.802L332.757 173.802C326.252 184.441 317.612 198.569 317.144 205.279C316.294 217.468 320.776 214.993 324.705 212.824C326.624 211.764 328.411 210.777 329.381 211.608C332.335 214.14 309.127 231.018 307.861 204.435C307.247 191.526 318.592 175.488 323.986 167.865C326.165 164.785 327.372 163.078 326.427 163.505C314.932 168.705 311.044 177.456 308.596 182.963C307.271 185.947 306.368 187.979 304.908 187.979C293.852 187.979 299.856 175.076 303.428 167.4C305.446 163.065 306.688 160.397 303.642 162.661C291.952 171.353 291.461 178.768 291.149 183.474C290.988 185.903 290.875 187.61 289.295 188.4C285.92 190.088 282.966 188.4 280.856 184.181C277.903 196.84 239.927 214.983 245.834 164.349C242.881 164.349 235.286 171.944 235.286 171.944L234.769 172.461C235.251 174.747 235.71 177.234 236.13 179.961C239.505 201.903 228.534 231.334 209.124 228.908C202.373 228.064 196.044 221.735 200.264 205.279C203.916 191.037 215.784 180.903 218.912 178.434C218.82 175.948 218.713 173.424 218.607 170.901L218.607 170.898C218.49 168.132 218.373 165.368 218.276 162.661C217.824 163.203 217.564 163.505 217.564 163.505C217.564 163.505 201.951 187.557 186.761 185.025C183.565 184.492 181.714 182.428 180.807 179.488C177.82 184.46 161.27 210.942 151.317 204.435C140.347 197.261 142.878 184.181 157.225 155.91C131.063 164.349 131.907 138.188 142.034 130.171C152.161 122.154 160.6 126.796 158.912 134.813ZM148.333 145.239C152.045 140.314 157.156 133.534 153.256 131.259C148.193 128.306 143.129 153.201 145.661 148.981C146.243 148.012 147.226 146.708 148.333 145.239ZM227.025 145.263C226.704 143.551 226.493 141.785 226.424 139.876C226.003 128.061 236.129 128.483 227.69 144.096C227.493 144.461 227.27 144.851 227.025 145.263ZM217.564 207.388C218.958 203.381 219.277 196.315 219.172 188.058L218.83 188.4C218.83 188.4 211.189 194.457 207.859 205.279C201.107 227.22 210.812 226.798 217.564 207.388ZM198.154 141.142C201.416 141.142 204.061 138.497 204.061 135.235C204.061 131.972 201.416 129.327 198.154 129.327C194.891 129.327 192.246 131.972 192.246 135.235C192.246 138.497 194.891 141.142 198.154 141.142ZM385.848 174.634C385.662 172.357 385.446 164.207 389.298 147.049C393.939 126.374 417.146 125.108 410.395 146.205C407.809 154.288 403.613 160.45 399.419 164.978C399.421 165.07 399.422 165.164 399.423 165.26C399.423 165.375 399.424 165.493 399.424 165.615C399.424 166.085 399.515 167.073 399.644 168.481V168.482C400.035 172.747 400.779 180.864 400.429 190.117C409.716 186.151 417.725 182.566 422.631 178.274C433.179 169.045 434.025 165.615 434.868 160.974C435.319 158.49 434.201 156.007 433.257 153.912C432.437 152.09 431.748 150.562 432.337 149.581C433.603 147.471 440.774 152.535 439.931 160.974C439.088 169.413 432.336 176.586 424.32 182.915C418.656 187.387 411.728 192.069 399.966 196.962C398.913 207.519 396.131 218.653 389.719 226.798C374.535 246.085 360.55 238.234 356.299 235.847C356.179 235.78 356.067 235.717 355.963 235.659C352.164 233.549 344.991 220.469 366.09 206.966C371.913 203.24 378.026 200.087 384.046 197.282C384.596 192.886 384.831 187.971 384.656 182.493C384.437 182.493 383.391 183.573 381.791 185.225L381.791 185.226L381.791 185.226L381.791 185.226C374.169 193.098 353.965 213.966 350.477 193.042C343.727 200.637 322.208 201.059 336.975 174.054C338.556 171.163 358.917 150.847 364.824 167.303C369.465 167.303 372.841 168.569 372.841 170.257C372.841 171.008 371.586 173.015 369.896 175.717L369.895 175.718L369.895 175.719C367.789 179.085 365.008 183.532 363.136 187.979L362.961 188.395C359.722 196.082 358.732 198.431 367.356 193.042C373.21 189.383 380.016 181.917 385.848 174.634ZM360.605 229.752C364.65 231.774 378.383 225.721 383.104 202.996C382.919 203.053 382.733 203.111 382.546 203.169C359.339 210.342 355.541 227.22 360.605 229.752ZM398.405 157.451C398.327 156.985 398.245 156.474 398.158 155.91C397.315 150.425 400.267 133.547 405.753 136.5C411.239 139.454 399.424 155.91 399.424 155.91C399.424 155.91 399.063 156.468 398.405 157.451ZM346.681 177.008C355.542 165.615 361.871 168.147 362.715 170.257C363.559 172.366 344.571 193.042 342.039 192.198C339.508 191.354 337.82 188.4 346.681 177.008Z" fill="url(#paint0_linear)"/>
<defs>
<linearGradient id="paint0_linear" x1="339.016" y1="17.4604" x2="334.356" y2="233.37" gradientUnits="userSpaceOnUse">
<stop offset="0.307292" stop-color="#F5DD6D"/>
<stop offset="0.494792" stop-color="#FCEB85"/>
<stop offset="0.96875" stop-color="#DDAC2A"/>
</linearGradient>
</defs>
</svg>
